<?xml version="1.0" encoding="UTF-8"?>
<svg id="Layer_2" data-name="Layer 2" xmlns="http://www.w3.org/2000/svg" viewBox="0 0 137.8 101.61">
  <defs>
    <style>
      .cls-1 {
        fill: #01a9e0;
      }

      .cls-2 {
        fill: #282160;
      }

      .cls-3 {
        fill: #ef4f98;
      }

      .cls-4 {
        fill: #28205f;
      }

      .cls-5 {
        fill: #65489d;
      }
    </style>
  </defs>
  <g id="Layer_1-2" data-name="Layer 1">
    <g>
      <g>
        <path class="cls-4" d="M0,89.43c0-7.48,4.57-12.17,11.15-12.17,4.79,0,8.15,2.27,9.75,6.17.06.19,0,.38-.22.45l-1.95.58c-.19.06-.35-.03-.42-.19-1.34-2.84-3.64-4.38-7.13-4.38-5.43,0-8.4,3.96-8.4,9.55s3,9.55,8.4,9.55c3.74,0,6.39-1.88,7.6-5.34.06-.19.22-.29.42-.22l1.95.58c.19.06.25.19.22.35-1.34,4.28-4.83,7.25-10.26,7.25-6.68,0-11.12-4.73-11.12-12.17Z"/>
        <path class="cls-4" d="M23.74,93.07c0-4.89,3-8.37,7.7-8.37,2.56,0,4.79,1.25,5.94,3.23l.1-2.59c0-.22.16-.32.35-.32h1.66c.19,0,.32.13.32.32v15.46c0,.22-.13.35-.32.35h-1.66c-.19,0-.35-.1-.35-.35l-.1-2.59c-1.15,2.01-3.39,3.26-5.94,3.26-4.7,0-7.7-3.48-7.7-8.4ZM37.48,93.07c0-3.58-2.27-6.01-5.56-6.01s-5.56,2.43-5.56,6.01,2.27,6.04,5.56,6.04,5.56-2.43,5.56-6.04Z"/>
        <path class="cls-4" d="M45.14,101.16c-.22,0-.35-.13-.35-.35v-23.29c0-.19.13-.32.35-.32h1.88c.19,0,.32.13.32.32v23.29c0,.22-.13.35-.32.35h-1.88Z"/>
        <path class="cls-4" d="M51.18,93.07c0-4.86,3.07-8.37,7.89-8.37s7.38,3.61,7.32,8.85c0,.22-.13.35-.35.35h-12.21c.32,3.23,2.27,5.24,5.24,5.24,2.33,0,3.8-.96,4.7-2.72.1-.19.26-.22.45-.16l1.6.58c.19.06.29.22.19.42-1.37,2.84-3.83,4.22-6.93,4.22-4.86,0-7.89-3.55-7.89-8.4ZM53.87,91.89h9.81c-.22-2.94-1.92-4.89-4.6-4.89s-4.79,1.85-5.21,4.89Z"/>
        <path class="cls-4" d="M70.32,101.16c-.22,0-.35-.13-.35-.35v-15.46c0-.19.13-.32.35-.32h1.63c.22,0,.35.1.35.32l.13,2.59c1.21-2.14,3.58-3.23,5.78-3.23,3.64,0,5.78,2.24,5.78,5.97v10.13c0,.22-.13.35-.32.35h-1.88c-.22,0-.35-.13-.35-.35v-9.07c0-3.1-1.21-4.67-3.9-4.67-2.3,0-5.02,1.73-5.02,5.56v8.18c0,.22-.13.35-.32.35h-1.88Z"/>
        <path class="cls-4" d="M87.73,93.07c0-4.89,3-8.37,7.7-8.37,2.46,0,4.63,1.15,5.82,3.04v-10.22c0-.19.13-.32.35-.32h1.89c.19,0,.32.13.32.32v23.29c0,.22-.13.35-.32.35h-1.66c-.19,0-.35-.1-.35-.35l-.1-2.59c-1.15,2.01-3.39,3.26-5.94,3.26-4.7,0-7.7-3.48-7.7-8.4ZM101.47,93.07c0-3.58-2.27-6.01-5.56-6.01s-5.56,2.43-5.56,6.01,2.27,6.04,5.56,6.04,5.56-2.43,5.56-6.04Z"/>
        <path class="cls-4" d="M107.64,93.07c0-4.89,3-8.37,7.7-8.37,2.56,0,4.79,1.25,5.94,3.23l.1-2.59c0-.22.16-.32.35-.32h1.66c.19,0,.32.13.32.32v15.46c0,.22-.13.35-.32.35h-1.66c-.19,0-.35-.1-.35-.35l-.1-2.59c-1.15,2.01-3.39,3.26-5.94,3.26-4.7,0-7.7-3.48-7.7-8.4ZM121.38,93.07c0-3.58-2.27-6.01-5.56-6.01s-5.56,2.43-5.56,6.01,2.27,6.04,5.56,6.04,5.56-2.43,5.56-6.04Z"/>
        <path class="cls-4" d="M129.04,101.16c-.22,0-.35-.13-.35-.35v-15.46c0-.19.13-.32.35-.32h1.63c.22,0,.35.1.35.32l.13,2.78c1.18-2.11,3.23-3.32,5.5-3.32.38,0,.64,0,.86.06.22.03.29.16.29.35v1.85c0,.26-.13.35-.35.32-.29-.03-.61-.1-1.09-.1-2.65,0-5.11,2.21-5.11,5.11v8.4c0,.22-.13.35-.32.35h-1.88Z"/>
      </g>
      <g>
        <path class="cls-1" d="M108.06,52.92c-.14-1.49-1.39-4.05-4.62-4.05-2.72,0-3.83,2.27-4.21,3.99-.25,1.14-1.26,3.88-3.57,5.84-2.79,2.37-4.26,2.23-6.28,2.87-2.02.65-3.07,1.7-3.42,3.42-.06.29-.09.58-.09.89,0,1.06.38,2.04,1,2.79.63.76,1.5,1.31,2.51,1.51.29.06.58.09.89.09h14.64c2.4,0,4.35-1.93,4.39-4.32l-.02-.53-1.22-12.49Z"/>
        <path class="cls-5" d="M80.01,11.72c0,16.35,0,17.34,0,17.34,0,6.31-5.16,11.82-11.47,11.94-6.58.13-11.96-5.16-11.96-11.71h0V4.4c0-2.43-1.97-4.4-4.4-4.4h-14.63c-2.43,0-4.4,1.97-4.4,4.4v24.88h0c0,19.72,16.24,35.65,36.07,35.13,19.11-.49,34.22-16.4,34.22-35.51l-.02-28.9h-11.69c-5.47,0-11.71,4.1-11.71,11.71"/>
        <path class="cls-3" d="M56.58,4.37c-.02-2.41-1.98-4.37-4.39-4.37h-14.64c-2.42,0-4.38,1.95-4.39,4.37v.02s-5.78,60.7-5.78,60.7c-.05.26-.08.53-.08.8,0,2.43,1.97,4.39,4.39,4.39h14.64c2.43,0,4.39-1.97,4.39-4.39,0,0,.21-2.23.56-5.85,1.46-15.31,5.3-55.41,5.3-55.64v-.03Z"/>
        <path class="cls-2" d="M51.28,60.05c1.69.93,3.46,1.73,5.3,2.38V4.4c0,.24-3.84,40.33-5.3,55.64"/>
      </g>
    </g>
  </g>
</svg>