<?xml version="1.0" encoding="UTF-8"?>
<svg id="Layer_2" data-name="Layer 2" xmlns="http://www.w3.org/2000/svg" viewBox="0 0 188.81 161.84">
  <defs>
    <style>
      .cls-1 {
        fill: #01a9e0;
      }

      .cls-2 {
        fill: #282160;
      }

      .cls-3 {
        fill: #ef4f98;
      }

      .cls-4 {
        fill: #65489d;
      }
    </style>
  </defs>
  <g id="Layer_1-2" data-name="Layer 1">
    <g>
      <path class="cls-1" d="M185.97,121.86c-.33-3.44-3.21-9.32-10.64-9.32-6.27,0-8.82,5.22-9.7,9.19-.58,2.63-2.91,8.93-8.23,13.44-6.42,5.45-9.81,5.14-14.46,6.62-4.64,1.48-7.06,3.92-7.87,7.87-.13.66-.2,1.34-.2,2.04,0,2.44.87,4.68,2.31,6.43,1.44,1.75,3.46,3.01,5.77,3.48.66.13,1.34.2,2.04.2h33.72c5.53,0,10.01-4.44,10.11-9.95l-.04-1.23-2.8-28.77Z"/>
      <path class="cls-4" d="M121.39,26.98c0,37.65-.01,39.92-.01,39.92,0,14.54-11.88,27.2-26.42,27.5-15.15.3-27.53-11.89-27.53-26.97h0V10.13c0-5.6-4.54-10.13-10.14-10.13H23.62c-5.6,0-10.14,4.53-10.14,10.13v57.29h0c0,45.41,37.39,82.08,83.06,80.9,43.99-1.13,78.78-37.77,78.78-81.77L175.29.02h-26.93c-12.6,0-26.97,9.45-26.97,26.96"/>
      <path class="cls-3" d="M67.43,10.07C67.39,4.51,62.88.02,57.32.02H23.6C18.03.02,13.52,4.51,13.49,10.07v.05S.17,149.88.17,149.88c-.11.6-.17,1.21-.17,1.84,0,5.59,4.53,10.12,10.11,10.12h33.72c5.59,0,10.12-4.53,10.12-10.12,0,0,.49-5.14,1.29-13.47,3.37-35.25,12.2-127.57,12.2-128.12v-.07Z"/>
      <path class="cls-2" d="M55.23,138.26c3.88,2.15,7.96,3.99,12.2,5.49V10.13c0,.55-8.83,92.88-12.2,128.13"/>
    </g>
  </g>
</svg>